<svg xmlns="http://www.w3.org/2000/svg" xml:space="preserve" width="155px" height="169px" version="1.1" style="shape-rendering:geometricPrecision; text-rendering:geometricPrecision; image-rendering:optimizeQuality; fill-rule:evenodd; clip-rule:evenodd"
viewBox="0 0 156.04 170.5"
 xmlns:xlink="http://www.w3.org/1999/xlink"
 xmlns:xodm="http://www.corel.com/coreldraw/odm/2003">
 <defs>
  <style type="text/css">
   <![CDATA[
    .fil0 {fill:white}
   ]]>
  </style>
 </defs>
 <g id="Capa_x0020_1">
  <metadata id="CorelCorpID_0Corel-Layer"/>
  <path class="fil0" d="M145.13 140.55c-7.22,5.2 -12.93,10.43 -25.55,13.27 -11.2,2.51 -23.66,1.02 -33.57,-2.9 -38.6,-15.25 -39.84,-80.06 1.76,-95.36 10.29,-3.79 23.67,-5.02 35.02,-1.92 15.46,4.21 12.67,5.27 13.08,25.47l14.56 -0.14 -0.13 -27.44c-19.27,-16.16 -49.88,-20.17 -75.82,-7.23 -46.76,23.31 -45.6,103.51 7.31,121.84 29.07,10.07 58.83,1.69 74.25,-14.97 -1.31,-1.72 -8.28,-8.88 -10.91,-10.62z"/>
  <path class="fil0" d="M69.69 128.86c12.42,-1.8 23.68,-14.19 28.48,-23.65 5.99,-11.82 7.05,-31.64 5.41,-46.31 -5.79,0.1 -11.41,1.67 -15.74,3.59 0.05,11.89 0.94,24.57 -3.73,34.7 -5.02,10.88 -9.67,11.79 -19.36,17.75 0.77,5.37 2.88,9.89 4.94,13.92z"/>
  <polygon class="fil0" points="44.67,14.8 87.78,15.04 87.86,32.51 103.25,30.6 103.91,0.22 44.55,0 "/>
  <path class="fil0" d="M0.06 78.78c-1.22,27.39 15.84,47.82 38.31,52.05 -2.38,-17.59 -3.23,-16.37 -8.2,-19.69 -10.89,-7.26 -13.28,-18.64 -14.24,-32.35l-15.87 -0.01z"/>
 </g>
</svg>
