<?xml version="1.0" encoding="utf-8"?>
<!-- Generator: Adobe Illustrator 24.1.0, SVG Export Plug-In . SVG Version: 6.00 Build 0)  -->
<svg version="1.1" id="Capa_1" xmlns="http://www.w3.org/2000/svg" xmlns:xlink="http://www.w3.org/1999/xlink" x="0px" y="0px"
	 viewBox="0 0 1000 1000" style="enable-background:new 0 0 1000 1000;" xml:space="preserve">
<style type="text/css">
	.st0{fill:#FFFFFF;}
</style>
<g>
	<path id="LinkedIn" class="st0" d="M990,605.9v362.3H780v-338c0-84.9-30.4-142.9-106.4-142.9c-58,0-92.6,39.1-107.8,76.8
		c-5.5,13.5-7,32.3-7,51.2v352.9H348.7c0,0,2.8-572.5,0-631.9h210.1v89.6c-0.4,0.7-1,1.4-1.4,2h1.4v-2
		c27.9-43,77.8-104.4,189.3-104.4C886.4,321.5,990,411.8,990,605.9z M128.9,31.8C57,31.8,10,78.9,10,140.9
		c0,60.7,45.7,109.2,116.1,109.2h1.4c73.3,0,118.8-48.6,118.8-109.2C245,78.9,200.8,31.8,128.9,31.8z M22.5,968.2h210V336.4h-210
		V968.2z"/>
</g>
</svg>
