<?xml version="1.0" encoding="utf-8"?>
<!-- Generator: Adobe Illustrator 24.1.0, SVG Export Plug-In . SVG Version: 6.00 Build 0)  -->
<svg version="1.1" id="Capa_1" xmlns="http://www.w3.org/2000/svg" xmlns:xlink="http://www.w3.org/1999/xlink" x="0px" y="0px"
	 viewBox="0 0 512 512" style="enable-background:new 0 0 512 512;" xml:space="preserve">
<style type="text/css">
	.st0{fill:#FFFFFF;}
</style>
<path class="st0" d="M410.7,180.7L410.7,180.7c-5.1-1.7-10.3-3.4-15.5-4.9c0.9-3.5,1.7-7,2.4-10.6c11.7-56.9,4-102.7-22.1-117.8
	c-25-14.5-66,0.6-107.4,36.7c-4.1,3.6-8.1,7.2-12,11c-2.6-2.5-5.3-5-8-7.4c-43.4-38.6-86.8-54.8-112.9-39.7
	c-25,14.5-32.4,57.6-21.9,111.5c1.1,5.3,2.2,10.6,3.6,15.9c-6.2,1.8-12.1,3.6-17.8,5.6C48.5,198.9,16,226.7,16,255.6
	c0,29.8,34.8,59.7,87.8,77.9c4.3,1.5,8.6,2.8,13,4.1c-1.4,5.7-2.7,11.4-3.8,17.2c-10,53-2.2,95.1,22.8,109.5
	c25.8,14.9,69-0.4,111.1-37.3c3.3-2.9,6.7-6,10-9.3c4.2,4.1,8.5,8,13,11.9c40.8,35.2,81.1,49.4,106,34.9
	c25.8-14.9,34.1-60.1,23.3-115.1c-0.8-4.2-1.8-8.5-2.9-12.9c3-0.9,6-1.8,8.9-2.8c55-18.3,90.8-47.8,90.8-78
	C496,226.6,462.5,198.6,410.7,180.7z M281.7,99.6c35.4-30.9,68.6-43.1,83.6-34.4l0,0c16.1,9.3,22.3,46.8,12.2,95.9
	c-0.7,3.2-1.4,6.4-2.2,9.6c-21.1-4.8-42.6-8.2-64.2-10.2c-12.4-17.8-25.9-34.8-40.6-50.8C274.2,106.3,277.9,102.9,281.7,99.6
	L281.7,99.6z M157.7,280.3c4.3,8.4,8.9,16.7,13.6,24.9c4.8,8.4,9.8,16.6,15.1,24.7c-14.9-1.6-29.6-4-44.2-7.1
	C146.4,309,151.6,294.8,157.7,280.3z M157.7,231.9c-6-14.2-11.1-28.1-15.3-41.6c13.7-3.1,28.3-5.6,43.5-7.5c-5.1,8-10,16-14.7,24.2
	S162,223.5,157.7,231.9L157.7,231.9z M168.6,256.1c6.3-13.2,13.1-26.1,20.4-38.8l0,0c7.3-12.7,15-25,23.3-37.1
	c14.3-1.1,28.9-1.6,43.7-1.6s29.5,0.6,43.8,1.7c8.1,12.1,15.9,24.4,23.1,37s14.2,25.5,20.7,38.6c-6.4,13.2-13.3,26.2-20.6,38.9l0,0
	c-7.3,12.7-14.9,25.1-23,37.2c-14.3,1-29,1.5-44,1.5s-29.5-0.5-43.5-1.4c-8.3-12.1-16.1-24.6-23.5-37.3S174.9,269.2,168.6,256.1
	L168.6,256.1z M340.8,305c4.8-8.4,9.5-16.9,13.9-25.5l0,0c6.1,13.8,11.5,27.9,16.1,42.3c-14.8,3.3-29.7,5.9-44.8,7.6
	C331.1,321.4,336,313.3,340.8,305z M354.5,231.9c-4.4-8.4-9-16.8-13.8-25l0,0c-4.7-8.1-9.5-16.1-14.6-24.1c15.3,1.9,30,4.5,43.8,7.7
	C365.4,204.6,360.3,218.4,354.5,231.9z M256.2,124.5L256.2,124.5c10,10.9,19.4,22.3,28.3,34.2c-18.9-0.9-37.8-0.9-56.7,0
	C237.1,146.3,246.6,134.9,256.2,124.5z M145.7,65.9c16.1-9.3,51.6,4,89,37.3c2.4,2.1,4.8,4.4,7.2,6.7c-14.7,16-28.4,32.9-40.9,50.7
	c-21.5,1.9-42.9,5.3-64.1,10c-1.2-4.9-2.3-9.8-3.3-14.8l0,0C124.6,109.5,130.6,74.6,145.7,65.9z M122.3,317.7c-4-1.1-8-2.4-11.8-3.7
	c-23.4-8-42.7-18.4-56-29.8c-11.9-10.2-17.9-20.4-17.9-28.6c0-17.5,26.1-39.9,69.5-55c5.5-1.9,11-3.6,16.5-5.2
	c6.5,20.7,14.3,41,23.4,60.8C136.7,276.1,128.8,296.7,122.3,317.7z M233.4,411.4c-18.6,16.3-37.3,27.9-53.7,33.7l0,0
	c-14.8,5.2-26.6,5.4-33.7,1.3c-15.1-8.8-21.4-42.5-12.9-87.9c1-5.3,2.2-10.7,3.5-16c21.3,4.6,42.9,7.7,64.7,9.4
	c12.6,17.9,26.4,34.9,41.2,51C239.5,405.8,236.5,408.6,233.4,411.4z M256.8,388.2c-9.7-10.5-19.4-22.1-28.9-34.6
	c9.2,0.4,18.6,0.5,28.1,0.5c9.8,0,19.5-0.2,29-0.6C276.2,365.5,266.8,377.1,256.8,388.2L256.8,388.2z M381.3,416.8
	c-2.9,15.4-8.6,25.7-15.7,29.9c-15.1,8.8-47.5-2.6-82.4-32.7c-4-3.4-8-7.1-12.1-11c14.5-16.1,28-33.3,40.2-51.2
	c21.9-1.9,43.6-5.2,65-10c1,4,1.8,7.8,2.6,11.6l0,0C383.8,377.6,384.5,399.6,381.3,416.8z M398.7,314.1L398.7,314.1
	c-2.6,0.9-5.3,1.7-8.1,2.5c-6.7-20.8-14.8-41.2-24.3-60.9c9.1-19.5,16.9-39.5,23.4-60.1c4.9,1.4,9.7,2.9,14.3,4.5
	c44.4,15.3,71.5,38,71.5,55.4C475.5,274.2,446.2,298.3,398.7,314.1z"/>
<path class="st0" d="M256,298.5c23.7,0.1,43.1-19.1,43.1-42.9s-19.1-43.1-42.9-43.1s-43.1,19.1-43.1,42.9c0,0,0,0.1,0,0.1
	C213.1,279.2,232.3,298.5,256,298.5C256,298.5,256,298.5,256,298.5z"/>
</svg>
